<svg width="30" height="40" viewBox="0 0 30 40" fill="none" xmlns="http://www.w3.org/2000/svg">
<g id="Frame">
<path id="Vector" d="M24.8984 20.9922C24.8828 18.125 26.1797 15.9609 28.8047 14.3672C27.3359 12.2656 25.1172 11.1094 22.1875 10.8828C19.4141 10.6641 16.3828 12.5 15.2734 12.5C14.1016 12.5 11.4141 10.9609 9.30469 10.9609C4.94531 11.0312 0.3125 14.4375 0.3125 21.3672C0.3125 23.4141 0.6875 25.5286 1.4375 27.7109C2.4375 30.5781 6.04687 37.6094 9.8125 37.4922C11.7812 37.4453 13.1719 36.0938 15.7344 36.0938C18.2187 36.0938 19.5078 37.4922 21.7031 37.4922C25.5 37.4375 28.7656 31.0469 29.7187 28.1719C24.625 25.7734 24.8984 21.1406 24.8984 20.9922ZM20.4766 8.16406C22.6094 5.63281 22.4141 3.32812 22.3516 2.5C20.4687 2.60938 18.2891 3.78125 17.0469 5.22656C15.6797 6.77344 14.875 8.6875 15.0469 10.8438C17.0859 11 18.9453 9.95312 20.4766 8.16406Z" fill="#D9D9D9" fill-opacity="0.6"/>
</g>
</svg>
